<svg xmlns="http://www.w3.org/2000/svg" width="60.75" height="60.75" viewBox="0 0 60.75 60.75">
  <g id="departments-icon" transform="translate(0.375 0.375)">
    <path id="Path_5" data-name="Path 5" d="M58.064,33.082v-3.1a4.81,4.81,0,0,0-3.448-4.636l-6.229-1.868V22a6.805,6.805,0,0,0,2.24-2.648h1.631a2.907,2.907,0,0,0,2.9-2.9V10.645a10.645,10.645,0,0,0-21.29,0v5.806a2.907,2.907,0,0,0,2.9,2.9H38.4A6.805,6.805,0,0,0,40.645,22v1.471l-6.229,1.869a4.809,4.809,0,0,0-3.448,4.636V32.9H20.323V29.033h4.839a2.907,2.907,0,0,0,2.9-2.9V14.516a2.907,2.907,0,0,0-2.9-2.9H5.806a2.907,2.907,0,0,0-2.9,2.9V26.129a2.907,2.907,0,0,0,2.9,2.9h4.839V32.9H2.9a2.907,2.907,0,0,0-2.9,2.9v1.935a2.9,2.9,0,0,0,1.935,2.725V60H58.064V40.467A2.9,2.9,0,0,0,60,37.742V35.807a2.9,2.9,0,0,0-1.935-2.725Zm-1.935-3.1V32.9H47.271l-.191-1.145,5.354-2.142-.786-3.145,2.411.724a2.887,2.887,0,0,1,2.069,2.782Zm-11.761-.946h.295l.645,3.871H43.723Zm5.123-3.207.655,2.622L46.754,29.8l-.264-1.588,1.43-2.861Zm3.734-9.374a.969.969,0,0,1-.968.968H51.213a6.82,6.82,0,0,0,.077-.968v-2.9h.968a.969.969,0,0,1,.968.968ZM44.516,1.936a8.72,8.72,0,0,1,8.71,8.71v1.146a2.863,2.863,0,0,0-.968-.178H50.323a6,6,0,0,1-4.272-1.769L44.516,8.309,42.981,9.844a6,6,0,0,1-4.272,1.769H36.774a2.863,2.863,0,0,0-.968.178V10.645A8.72,8.72,0,0,1,44.516,1.936ZM36.774,17.42a.969.969,0,0,1-.968-.968V14.516a.969.969,0,0,1,.968-.968h.968v2.9a6.82,6.82,0,0,0,.077.968Zm2.9-.968V13.484a7.91,7.91,0,0,0,4.672-2.271l.166-.166.166.166a7.91,7.91,0,0,0,4.672,2.271v2.968a4.839,4.839,0,1,1-9.677,0Zm4.839,6.774a6.733,6.733,0,0,0,1.935-.285v1.024L44.886,27.1h-.739l-1.566-3.131V22.942a6.766,6.766,0,0,0,1.935.284Zm-3.4,2.129,1.43,2.862L42.278,29.8l-3.392-1.357.655-2.622ZM32.9,29.978A2.886,2.886,0,0,1,34.972,27.2l2.412-.724L36.6,29.618l5.354,2.142L41.761,32.9H32.9ZM5.806,13.549H25.161a.969.969,0,0,1,.968.968v8.71H4.839v-8.71A.969.969,0,0,1,5.806,13.549ZM4.839,26.129v-.968h21.29v.968a.969.969,0,0,1-.968.968H5.806A.969.969,0,0,1,4.839,26.129Zm7.742,2.9h5.806V32.9H12.581ZM3.871,58.065V40.645H56.129V58.065ZM58.064,37.742a.969.969,0,0,1-.968.968H2.9a.969.969,0,0,1-.968-.968V35.807a.969.969,0,0,1,.968-.968H57.1a.969.969,0,0,1,.968.968Zm0,0" fill="#652b7c" stroke="#fff" stroke-width="0.75"/>
    <path id="Path_6" data-name="Path 6" d="M48,365.548H96.387V352H48Zm1.935-11.613H94.452v9.677H49.935Zm0,0" transform="translate(-42.194 -309.419)" fill="#652b7c" stroke="#fff" stroke-width="0.75"/>
  </g>
</svg>
