<svg xmlns="http://www.w3.org/2000/svg" width="61" height="61" viewBox="0 0 61 61">
  <g id="programmes-icon" transform="translate(0.5 0.5)">
    <g id="Group_42" data-name="Group 42" transform="translate(20 27.5)">
      <g id="Group_41" data-name="Group 41">
        <path id="Path_9" data-name="Path 9" d="M206.917,234.667h-32.5a3.75,3.75,0,0,0-3.75,3.75v20a3.75,3.75,0,0,0,3.75,3.75h12.5v-2.5h-12.5a1.25,1.25,0,0,1-1.25-1.25v-20a1.25,1.25,0,0,1,1.25-1.25h32.5a1.25,1.25,0,0,1,1.25,1.25v20a1.25,1.25,0,0,1-1.25,1.25h-12.5v2.5h12.5a3.75,3.75,0,0,0,3.75-3.75v-20A3.75,3.75,0,0,0,206.917,234.667Z" transform="translate(-170.667 -234.667)" fill="#652b7c" stroke="#fff" stroke-width="1"/>
      </g>
    </g>
    <g id="Group_44" data-name="Group 44" transform="translate(32.5 57.5)">
      <g id="Group_43" data-name="Group 43">
        <rect id="Rectangle_280" data-name="Rectangle 280" width="15" height="2.5" fill="#652b7c" stroke="#fff" stroke-width="1"/>
      </g>
    </g>
    <g id="Group_46" data-name="Group 46" transform="translate(35 42.5)">
      <g id="Group_45" data-name="Group 45">
        <path id="Path_10" data-name="Path 10" d="M304.917,362.667h-2.5a3.75,3.75,0,0,0-3.75,3.75v13.75h2.5v-13.75a1.25,1.25,0,0,1,1.25-1.25h2.5a1.25,1.25,0,0,1,1.25,1.25v13.75h2.5v-13.75A3.75,3.75,0,0,0,304.917,362.667Z" transform="translate(-298.667 -362.667)" fill="#652b7c" stroke="#fff" stroke-width="1"/>
      </g>
    </g>
    <g id="Group_48" data-name="Group 48" transform="translate(5)">
      <g id="Group_47" data-name="Group 47">
        <path id="Path_11" data-name="Path 11" d="M51.417,0a8.75,8.75,0,0,0-8.75,8.75v2.5a1.25,1.25,0,0,0,1.25,1.25V15a7.5,7.5,0,0,0,15,0V12.5a1.25,1.25,0,0,0,1.25-1.25V8.75A8.75,8.75,0,0,0,51.417,0Zm6.25,10a1.25,1.25,0,0,0-1.25,1.25V15a5,5,0,1,1-10,0V11.25A1.25,1.25,0,0,0,45.167,10V8.75a6.25,6.25,0,0,1,12.5,0V10Z" transform="translate(-42.667)" fill="#652b7c" stroke="#fff" stroke-width="1"/>
      </g>
    </g>
    <g id="Group_50" data-name="Group 50" transform="translate(7.49 6.25)">
      <g id="Group_49" data-name="Group 49">
        <path id="Path_12" data-name="Path 12" d="M68.925,54.583a1.25,1.25,0,0,0-2.5,0,2.355,2.355,0,0,1-2.51,2.5l.01,2.5a5.168,5.168,0,0,0,4.141-2.061c1.359,1.09,3.838,2.061,8.359,2.061v-2.5C69.319,57.083,68.925,54.583,68.925,54.583Z" transform="translate(-63.915 -53.333)" fill="#652b7c" stroke="#fff" stroke-width="1"/>
      </g>
    </g>
    <g id="Group_52" data-name="Group 52" transform="translate(0 22.5)">
      <g id="Group_51" data-name="Group 51">
        <path id="Path_13" data-name="Path 13" d="M2.5,214.5V200.75a6.257,6.257,0,0,1,6.25-6.25h2.5V192H8.75A8.76,8.76,0,0,0,0,200.75v15A1.25,1.25,0,0,0,1.25,217H17.5v-2.5Z" transform="translate(0 -192)" fill="#652b7c" stroke="#fff" stroke-width="1"/>
      </g>
    </g>
    <g id="Group_54" data-name="Group 54" transform="translate(16.25 22.5)">
      <g id="Group_53" data-name="Group 53">
        <path id="Path_14" data-name="Path 14" d="M141.167,192h-2.5v2.5h2.5a6.242,6.242,0,0,1,4.168,1.591L147,194.229A8.736,8.736,0,0,0,141.167,192Z" transform="translate(-138.667 -192)" fill="#652b7c" stroke="#fff" stroke-width="1"/>
      </g>
    </g>
    <g id="Group_56" data-name="Group 56" transform="translate(10 21.25)">
      <g id="Group_55" data-name="Group 55">
        <path id="Path_15" data-name="Path 15" d="M90.333,181.333v2.5a1.25,1.25,0,0,1-2.5,0v-2.5h-2.5v2.5a3.75,3.75,0,0,0,7.5,0v-2.5Z" transform="translate(-85.333 -181.333)" fill="#652b7c" stroke="#fff" stroke-width="1"/>
      </g>
    </g>
    <g id="Group_58" data-name="Group 58" transform="translate(6.25 36.25)">
      <g id="Group_57" data-name="Group 57">
        <rect id="Rectangle_281" data-name="Rectangle 281" width="2.5" height="10" fill="#652b7c" stroke="#fff" stroke-width="1"/>
      </g>
    </g>
    <g id="Group_60" data-name="Group 60" transform="translate(27.5 5)">
      <g id="Group_59" data-name="Group 59">
        <path id="Path_16" data-name="Path 16" d="M257.167,42.667h-15a7.5,7.5,0,0,0,0,15v3.75a1.25,1.25,0,0,0,2.134.884l4.634-4.634h8.233a7.5,7.5,0,0,0,0-15Zm0,12.5h-8.75a1.25,1.25,0,0,0-.884.366L244.667,58.4V56.417a1.25,1.25,0,0,0-1.25-1.25h-1.25a5,5,0,1,1,0-10h15a5,5,0,1,1,0,10Z" transform="translate(-234.667 -42.667)" fill="#652b7c" stroke="#fff" stroke-width="1"/>
      </g>
    </g>
    <g id="Group_62" data-name="Group 62" transform="translate(32.5 11.25)">
      <g id="Group_61" data-name="Group 61">
        <rect id="Rectangle_282" data-name="Rectangle 282" width="2.5" height="2.5" fill="#652b7c" stroke="#fff" stroke-width="1"/>
      </g>
    </g>
    <g id="Group_64" data-name="Group 64" transform="translate(37.5 11.25)">
      <g id="Group_63" data-name="Group 63">
        <rect id="Rectangle_283" data-name="Rectangle 283" width="15" height="2.5" fill="#652b7c" stroke="#fff" stroke-width="1"/>
      </g>
    </g>
    <g id="Group_66" data-name="Group 66" transform="translate(52.5 47.5)">
      <g id="Group_65" data-name="Group 65">
        <rect id="Rectangle_284" data-name="Rectangle 284" width="2.5" height="2.5" fill="#652b7c" stroke="#fff" stroke-width="1"/>
      </g>
    </g>
    <g id="Group_68" data-name="Group 68" transform="translate(52.5 42.5)">
      <g id="Group_67" data-name="Group 67">
        <rect id="Rectangle_285" data-name="Rectangle 285" width="2.5" height="2.5" fill="#652b7c" stroke="#fff" stroke-width="1"/>
      </g>
    </g>
    <g id="Group_70" data-name="Group 70" transform="translate(47.5 47.5)">
      <g id="Group_69" data-name="Group 69">
        <rect id="Rectangle_286" data-name="Rectangle 286" width="2.5" height="2.5" fill="#652b7c" stroke="#fff" stroke-width="1"/>
      </g>
    </g>
  </g>
</svg>
