<svg xmlns="http://www.w3.org/2000/svg" width="66.985" height="60.8" viewBox="0 0 66.985 60.8">
  <g id="institution-icon" transform="translate(0.4 -21.28)">
    <g id="Group_2" data-name="Group 2" transform="translate(0 21.68)">
      <g id="Group_1" data-name="Group 1" transform="translate(0 0)">
        <path id="Path_7" data-name="Path 7" d="M65.044,49.558H50.449V46.739a1.141,1.141,0,0,0-.582-.993L34.234,36.96V32.486h3.092v1.7a1.141,1.141,0,0,0,1.141,1.141H47.79A1.141,1.141,0,0,0,48.863,33.8l-.936-2.659.947-2.6A1.141,1.141,0,0,0,47.8,27.009H43.556V25.354a1.141,1.141,0,0,0-1.141-1.141H34.234V22.821a1.141,1.141,0,1,0-2.282,0V36.96L16.318,45.735a1.141,1.141,0,0,0-.582.993v2.819H1.141A1.141,1.141,0,0,0,0,50.687V80.539A1.141,1.141,0,0,0,1.141,81.68h63.9a1.141,1.141,0,0,0,1.141-1.141V50.7A1.141,1.141,0,0,0,65.044,49.558ZM43.556,31.345l-.046-.046V29.337h2.6L45.645,30.8a1.141,1.141,0,0,0,0,.787l.536,1.461H39.608v-.559h2.807A1.141,1.141,0,0,0,43.556,31.345ZM34.234,26.5h7.041V30.2H34.234Zm-18.5,52.9H2.282V51.84H15.736Zm16.215,0H25.96V66.366h5.991Zm8.273,0H34.234V66.366h5.991Zm7.988,0H42.507V65.225a1.141,1.141,0,0,0-1.141-1.141H24.819a1.141,1.141,0,0,0-1.141,1.141V79.4H17.973V47.446l15.12-8.513L48.167,47.4l.046,3.286Zm15.69,0H50.449V51.84H63.9Z" transform="translate(0 -21.68)" fill="#652b7c" stroke="#fff" stroke-width="0.8"/>
      </g>
    </g>
    <g id="Group_4" data-name="Group 4" transform="translate(28.311 42.426)">
      <g id="Group_3" data-name="Group 3">
        <path id="Path_8" data-name="Path 8" d="M203.261,167.12a4.781,4.781,0,1,0,4.781,4.77A4.793,4.793,0,0,0,203.261,167.12Zm0,7.28a2.5,2.5,0,1,1,2.5-2.488h.011A2.5,2.5,0,0,1,203.261,174.4Z" transform="translate(-198.48 -167.12)" fill="#652b7c" stroke="#fff" stroke-width="0.8"/>
      </g>
    </g>
    <g id="Group_6" data-name="Group 6" transform="translate(5.032 54.35)">
      <g id="Group_5" data-name="Group 5" transform="translate(0 0)">
        <rect id="Rectangle_262" data-name="Rectangle 262" width="2.282" height="4.564" fill="#652b7c" stroke="#fff" stroke-width="0.8"/>
      </g>
    </g>
    <g id="Group_8" data-name="Group 8" transform="translate(10.658 54.35)">
      <g id="Group_7" data-name="Group 7" transform="translate(0 0)">
        <rect id="Rectangle_263" data-name="Rectangle 263" width="2.282" height="4.564" fill="#652b7c" stroke="#fff" stroke-width="0.8"/>
      </g>
    </g>
    <g id="Group_10" data-name="Group 10" transform="translate(21.442 54.35)">
      <g id="Group_9" data-name="Group 9" transform="translate(0 0)">
        <rect id="Rectangle_264" data-name="Rectangle 264" width="4.564" height="2.282" fill="#652b7c" stroke="#fff" stroke-width="0.8"/>
      </g>
    </g>
    <g id="Group_12" data-name="Group 12" transform="translate(30.81 54.35)">
      <g id="Group_11" data-name="Group 11" transform="translate(0 0)">
        <rect id="Rectangle_265" data-name="Rectangle 265" width="4.564" height="2.282" fill="#652b7c" stroke="#fff" stroke-width="0.8"/>
      </g>
    </g>
    <g id="Group_14" data-name="Group 14" transform="translate(40.179 54.35)">
      <g id="Group_13" data-name="Group 13" transform="translate(0 0)">
        <rect id="Rectangle_266" data-name="Rectangle 266" width="4.564" height="2.282" fill="#652b7c" stroke="#fff" stroke-width="0.8"/>
      </g>
    </g>
    <g id="Group_16" data-name="Group 16" transform="translate(21.442 59.668)">
      <g id="Group_15" data-name="Group 15" transform="translate(0 0)">
        <rect id="Rectangle_267" data-name="Rectangle 267" width="4.564" height="2.282" fill="#652b7c" stroke="#fff" stroke-width="0.8"/>
      </g>
    </g>
    <g id="Group_18" data-name="Group 18" transform="translate(30.81 59.668)">
      <g id="Group_17" data-name="Group 17" transform="translate(0 0)">
        <rect id="Rectangle_268" data-name="Rectangle 268" width="4.564" height="2.282" fill="#652b7c" stroke="#fff" stroke-width="0.8"/>
      </g>
    </g>
    <g id="Group_20" data-name="Group 20" transform="translate(40.179 59.668)">
      <g id="Group_19" data-name="Group 19" transform="translate(0 0)">
        <rect id="Rectangle_269" data-name="Rectangle 269" width="4.564" height="2.282" fill="#652b7c" stroke="#fff" stroke-width="0.8"/>
      </g>
    </g>
    <g id="Group_22" data-name="Group 22" transform="translate(5.032 63.331)">
      <g id="Group_21" data-name="Group 21" transform="translate(0 0)">
        <rect id="Rectangle_270" data-name="Rectangle 270" width="2.282" height="4.564" fill="#652b7c" stroke="#fff" stroke-width="0.8"/>
      </g>
    </g>
    <g id="Group_24" data-name="Group 24" transform="translate(10.658 63.331)">
      <g id="Group_23" data-name="Group 23" transform="translate(0 0)">
        <rect id="Rectangle_271" data-name="Rectangle 271" width="2.282" height="4.564" fill="#652b7c" stroke="#fff" stroke-width="0.8"/>
      </g>
    </g>
    <g id="Group_26" data-name="Group 26" transform="translate(5.032 72.323)">
      <g id="Group_25" data-name="Group 25" transform="translate(0 0)">
        <rect id="Rectangle_272" data-name="Rectangle 272" width="2.282" height="4.564" fill="#652b7c" stroke="#fff" stroke-width="0.8"/>
      </g>
    </g>
    <g id="Group_28" data-name="Group 28" transform="translate(10.658 72.323)">
      <g id="Group_27" data-name="Group 27" transform="translate(0 0)">
        <rect id="Rectangle_273" data-name="Rectangle 273" width="2.282" height="4.564" fill="#652b7c" stroke="#fff" stroke-width="0.8"/>
      </g>
    </g>
    <g id="Group_30" data-name="Group 30" transform="translate(53.245 54.35)">
      <g id="Group_29" data-name="Group 29" transform="translate(0 0)">
        <rect id="Rectangle_274" data-name="Rectangle 274" width="2.282" height="4.564" fill="#652b7c" stroke="#fff" stroke-width="0.8"/>
      </g>
    </g>
    <g id="Group_32" data-name="Group 32" transform="translate(58.87 54.35)">
      <g id="Group_31" data-name="Group 31" transform="translate(0 0)">
        <rect id="Rectangle_275" data-name="Rectangle 275" width="2.282" height="4.564" fill="#652b7c" stroke="#fff" stroke-width="0.8"/>
      </g>
    </g>
    <g id="Group_34" data-name="Group 34" transform="translate(53.245 63.331)">
      <g id="Group_33" data-name="Group 33" transform="translate(0 0)">
        <rect id="Rectangle_276" data-name="Rectangle 276" width="2.282" height="4.564" fill="#652b7c" stroke="#fff" stroke-width="0.8"/>
      </g>
    </g>
    <g id="Group_36" data-name="Group 36" transform="translate(58.87 63.331)">
      <g id="Group_35" data-name="Group 35" transform="translate(0 0)">
        <rect id="Rectangle_277" data-name="Rectangle 277" width="2.282" height="4.564" fill="#652b7c" stroke="#fff" stroke-width="0.8"/>
      </g>
    </g>
    <g id="Group_38" data-name="Group 38" transform="translate(53.245 72.323)">
      <g id="Group_37" data-name="Group 37" transform="translate(0 0)">
        <rect id="Rectangle_278" data-name="Rectangle 278" width="2.282" height="4.564" fill="#652b7c" stroke="#fff" stroke-width="0.8"/>
      </g>
    </g>
    <g id="Group_40" data-name="Group 40" transform="translate(58.87 72.323)">
      <g id="Group_39" data-name="Group 39" transform="translate(0 0)">
        <rect id="Rectangle_279" data-name="Rectangle 279" width="2.282" height="4.564" fill="#652b7c" stroke="#fff" stroke-width="0.8"/>
      </g>
    </g>
  </g>
</svg>
