<svg xmlns="http://www.w3.org/2000/svg" width="60.75" height="60.75" viewBox="0 0 60.75 60.75">
  <g id="faculties-icon" transform="translate(-15.625 -15.625)">
    <path id="Path_1" data-name="Path 1" d="M217.5,136a1.5,1.5,0,1,0,1.5,1.5A1.5,1.5,0,0,0,217.5,136Z" transform="translate(-175 -105)" fill="#652b7c" stroke="#fff" stroke-width="0.75"/>
    <path id="Path_2" data-name="Path 2" d="M289.5,136a1.5,1.5,0,1,0,1.5,1.5A1.5,1.5,0,0,0,289.5,136Z" transform="translate(-238 -105)" fill="#652b7c" stroke="#fff" stroke-width="0.75"/>
    <path id="Path_3" data-name="Path 3" d="M243,177a1,1,0,0,1-1-1h-2a3,3,0,0,0,6,0h-2A1,1,0,0,1,243,177Z" transform="translate(-196 -140)" fill="#652b7c" stroke="#fff" stroke-width="0.75"/>
    <path id="Path_4" data-name="Path 4" d="M75.646,52.237a1,1,0,0,0-.811-.223l-9.041,1.507a4.55,4.55,0,0,0-1.675.635l-.689-1.74A6.66,6.66,0,0,0,62.283,50.5l.261-2.365a17.322,17.322,0,0,0,.105-1.815,16.321,16.321,0,0,0-1.331-6.443,14.444,14.444,0,0,1-1.141-6.388l.17-3.461c.01-.218.021-.444.021-.668a13.367,13.367,0,1,0-26.718.668l.17,3.45c.01.258.019.5.019.742a14.256,14.256,0,0,1-1.159,5.656,16.341,16.341,0,0,0-1.225,8.265l.26,2.332a6.789,6.789,0,0,0-.792,1.145l-1.365-3.412a2.945,2.945,0,1,0-5.369,2.411l.192.383H22.416a5.025,5.025,0,0,1-2.236-.528l-1-.5A2.2,2.2,0,0,0,16,51.942v2.822a2.983,2.983,0,0,0,1.658,2.683l1.628.814a7.035,7.035,0,0,0,3.13.739H23v2.961L22.281,71.3A4.366,4.366,0,0,0,26.634,76q.111,0,.221-.006c.064,0,.127.006.191.006a4.025,4.025,0,0,0,3.781-2.644l4.565-8.487A8.747,8.747,0,0,0,37,68.35V76h2V68a1,1,0,0,0-.232-.64,6.818,6.818,0,0,1,.872-9.592l-1.28-1.536A8.815,8.815,0,0,0,37.117,57.5a1.029,1.029,0,0,0-.1.125h0l-.018.031-.013.022a8.757,8.757,0,0,0-1.3,2.43L31,68.812V56.663l1.421-3.538a4.793,4.793,0,0,1,1.052-1.614A5.061,5.061,0,0,1,37.06,50h3.346l5.716,10.479a1,1,0,0,0,1.756,0L50,56.588V70a1,1,0,0,0,.8.981l4.2.839V76h2V72.22l3.826.764c.025,0,.141.016.174.016h1.892l.192.358A4.051,4.051,0,0,0,66.88,76a3.765,3.765,0,0,0,.659-.054,4.053,4.053,0,0,0,3.13-2.611l2.66-.443h0A1.992,1.992,0,0,0,75,71.021l.2-.04A1,1,0,0,0,76,70V53A1,1,0,0,0,75.646,52.237ZM42.571,49.793A2.4,2.4,0,0,0,44,47.6V44.54a10,10,0,0,0,6,0V47.6a2.4,2.4,0,0,0,1.428,2.193L50.225,52h-6.45ZM47,43a8.009,8.009,0,0,1-8-8V30.523a14.609,14.609,0,0,0,4.328-4.955A25.9,25.9,0,0,0,55,30.852V35a8.009,8.009,0,0,1-8,8Zm13.514,8.528.019.019a4.634,4.634,0,0,1,1.037,1.6L62,54.233a4.548,4.548,0,0,0-1.795-.713l-7.821-1.3L53.593,50H56.93A4.954,4.954,0,0,1,60.514,51.528ZM61.1,57l-4.55-.91L52,55.18v-1l7.876,1.312A2.533,2.533,0,0,1,61.8,57Zm5.025-1.507L74,54.18v1l-4.7.941L64.9,57h-.7a2.533,2.533,0,0,1,1.921-1.507Zm-45.944.979-1.628-.814A1,1,0,0,1,18,54.764V51.942a.2.2,0,0,1,.289-.179l1,.5a7.035,7.035,0,0,0,3.13.739H26a1,1,0,0,0,.894-1.447l-.915-1.831a.945.945,0,0,1,.616-1.34h0a.949.949,0,0,1,1.107.566L29,52.193V57H22.416a5.025,5.025,0,0,1-2.236-.528ZM29,59v2H25V59ZM24.276,71.453,24.926,63H29v8.634a2.367,2.367,0,0,1-2.194,2.357,1.02,1.02,0,0,0-.112.006c-.02,0-.039,0-.059,0a2.365,2.365,0,0,1-2.358-2.547Zm12.74-13.827a1,1,0,0,1,.064-.077l-.061.079Zm-3.458-8.681-.115-1.028a14.337,14.337,0,0,1,1.075-7.253A16.244,16.244,0,0,0,35.84,34.22c0-.279-.01-.553-.021-.829l-.17-3.46a11.368,11.368,0,1,1,22.721-.57c0,.176-.009.369-.019.571l-.17,3.458a16.451,16.451,0,0,0,1.3,7.274,14.332,14.332,0,0,1,1.17,5.657,15.321,15.321,0,0,1-.094,1.6l-.114,1.03A6.994,6.994,0,0,0,56.93,48H52.4a.405.405,0,0,1-.4-.4V43.655A10,10,0,0,0,57,35V30a1,1,0,0,0-.859-.99,23.909,23.909,0,0,1-11.933-5.3l-.568-.473a1,1,0,0,0-1.535.321l-.388.775a12.6,12.6,0,0,1-4.273,4.84A1,1,0,0,0,37,30v5a10,10,0,0,0,5,8.655V47.6a.405.405,0,0,1-.4.4H37.06a7.045,7.045,0,0,0-3.5.945ZM47,57.912,44.866,54h4.267Zm5-.692,8,1.6V70.78l-8-1.6ZM62,59h2V71H62Zm5.2,14.975A1.788,1.788,0,0,1,66.88,74a2.049,2.049,0,0,1-1.762-1.008l.056-.008.022,0H65.2l2.056-.411a1.974,1.974,0,0,0,1.007.877A2.085,2.085,0,0,1,67.2,73.975ZM73,70.918h0l-4,.667V67.868a.3.3,0,0,1,.252-.3l3.4-.566a.329.329,0,0,1,.051,0,.3.3,0,0,1,.3.3v3.616Zm-.68-5.887-3.4.566A2.3,2.3,0,0,0,67,67.868v2.713l-1,.2V58.82l8-1.6V65.4a2.3,2.3,0,0,0-1.68-.373Z" fill="#652b7c" stroke="#fff" stroke-width="0.75"/>
  </g>
</svg>
